<svg width="20" height="15" viewBox="0 0 20 15" fill="none" xmlns="http://www.w3.org/2000/svg">
<g clip-path="url(#clip0_298_68)">
<path d="M4.54647 14.9264V7.23905L2.15042 5.05799L0.00183105 3.84766V13.5698C0.00183105 14.3204 0.613048 14.9264 1.36525 14.9264H4.54647Z" fill="#4285F4"/>
<path d="M15.4535 14.9263H18.6347C19.3892 14.9263 19.9981 14.318 19.9981 13.5697V3.84766L17.5645 5.23395L15.4535 7.23898V14.9263Z" fill="#34A853"/>
<path d="M4.54649 7.2388L4.22046 4.23514L4.54649 1.36035L10 5.43009L15.4536 1.36035L15.8183 4.07994L15.4536 7.2388L10 11.3085L4.54649 7.2388Z" fill="#EA4335"/>
<path d="M15.4535 1.36039V7.23884L19.9981 3.84744V2.03865C19.9981 0.361064 18.0735 -0.595283 16.7261 0.410805L15.4535 1.36039Z" fill="#FBBC04"/>
<path d="M0.0020752 3.84747L2.09224 5.40732L4.54672 7.23887V1.36043L3.27413 0.410841C1.92438 -0.595325 0.0020752 0.3611 0.0020752 2.03861V3.84739V3.84747Z" fill="#C5221F"/>
</g>
<defs>
<clipPath id="clip0_298_68">
<rect width="20" height="15" fill="white"/>
</clipPath>
</defs>
</svg>
